<svg xmlns="http://www.w3.org/2000/svg" version="1.1" viewBox="-5.0 -10.0 110.0 135.0">
 <path d="m59.473 37.586c-0.26562 0.082031-0.89844 0.27344-1.5 0.38281-2.4453 0.46484-6.3828 0.86719-7.7578 1.0664-1.4453 0.20703-5.3984 2.0273-7.5352 3.0547v0.003906c0.21094-0.85547 0.49219-1.9297 0.64844-2.7891 0.097656-0.53906 0.14844-1.0039 0.14062-1.3203-0.007812-0.24219-0.054688-0.42969-0.10938-0.5625-0.10938-0.25781-0.30078-0.4375-0.57812-0.52344-0.22266-0.070313-0.59766-0.074219-1.0664 0.10547-1.4453 0.55469-4.707 2.9844-5.3828 3.6016-0.0625 0.058593-0.16797 0.0625-0.28516 0.082031-0.25 0.035156-0.55078 0.027344-0.875 0.003906-1.1602-0.085937-2.6016-0.41406-3.6797-0.49609-1.4219-0.11328-3.0703 0.20703-3.832 0.38281-1.0781-0.94531-2.6172-2.0547-3.832-2.7148-0.66016-0.35547-1.2422-0.57812-1.6328-0.63281-0.59766-0.078125-1.0742 0.21484-1.2891 0.96484-0.14453 0.50391-0.14062 1.3594-0.0625 2.2891 0.097656 1.168 0.30078 2.4688 0.25 3.0781-0.054688 0.63281 0.13281 1.2734 0.37891 1.9453 0.25781 0.70703 0.60156 1.4609 0.41016 2.3594-0.14453 0.64844 0.003907 1.4922 0.32031 2.3516 0.49219 1.3125 1.3711 2.6719 1.7578 3.2422-0.074219 0.48437-0.22266 1.5273-0.36719 3.2656-0.21094 2.5195 1.6523 9.8711 2.5625 14.137 0.86719 4.0703 0.12891 7.8203-0.007812 8.707-0.10156 0.66406 0.28906 5.043 0.71094 7.9336 0.19531 1.3242 0.41406 2.3516 0.5625 2.6562 0.15234 0.30469 0.42188 0.52734 0.82031 0.62109 0.30469 0.074219 0.73047 0.058594 1.2188-0.054688 1.0352-0.24609 2.4102-0.94922 3.1641-1.6055 0.49219-0.42969 0.73047-0.88672 0.75781-1.2266 0.070313-0.95703-1.3047-6.4453-1.6602-7.6562 0.035156-0.12891 0.16406-0.60156 0.32031-1.0078 0.87109-2.2539 3.0195-6.4648 3.8477-8.0703 1.0508 0.64453 1.5273 2.0703 1.7734 3.7734 0.76172 5.3672-1.2422 13.504-1.4141 14.426-0.23828 1.293-0.68359 2.1055-1.0586 3.1641-0.11328 0.31641-0.078125 0.60156 0.054688 0.85156 0.11719 0.23828 0.36328 0.47266 0.75781 0.62891 0.53125 0.21094 1.4766 0.30469 2.4688 0.30859 1.418 0.007812 2.9297-0.16406 3.3359-0.29297 0.39453-0.125 0.68359-0.3125 0.89453-0.5625 0.21094-0.24609 0.35156-0.5625 0.38672-0.99219 0.039062-0.41797-0.035156-0.99609-0.24609-1.8008 0-0.03125 0-0.28906 0.019531-0.50781 0.054688-0.53906 0.17969-1.3125 0.35156-2.2539 1.0625-5.7305 3.9883-17.43 4.625-19.957 1.1367-0.24219 3.375-0.86719 4.5508-1.1953 0.34375 0.91016 1.0078 2.0039 1.793 3.0781 1.3242 1.8242 2.957 3.6211 3.4297 4.2695-0.054687 0.22656-0.25781 1.0078-0.53125 1.6562-0.74219 1.7734-2.0391 4.1797-3.0781 5.5859-0.20312 0.27344-0.39453 0.51172-0.56641 0.6875-0.097656 0.097656-0.16406 0.17969-0.23828 0.21094-0.96094 0.36719-1.4453 1.1445-1.6367 1.9727-0.17188 0.73828-0.089844 1.5078 0.039062 1.9688 0.10156 0.35937 0.45703 0.72656 1.1367 0.83594 1.1719 0.18359 3.9023-0.33594 4.7617-0.45703 0.16406-0.023438 0.39844-0.10547 0.64062-0.32422 0.24609-0.21875 0.58594-0.64062 0.98047-1.2227 2-2.9609 5.6758-10.277 5.9062-11.203 0.14844-0.60156 0.011718-1.2852-0.32031-2.0078-0.37109-0.80859-1-1.6992-1.4219-2.6328-0.17969-0.39844-0.21094-1.1133-0.20312-1.9141 0.007813-0.85156 0.078125-1.7891 0.16016-2.6133 0.39844 0.5625 0.875 1.1797 1.4023 1.832 3.043 3.7383 7.8711 8.8008 8.5391 10.141 0.5 1 0.40625 2.4844 0.050781 3.6055-0.11328 0.35938-0.25781 0.67969-0.42188 0.92969-0.10156 0.15234-0.19922 0.28516-0.32031 0.33594-0.49609 0.20703-0.92188 0.65625-1.2109 1.2383-0.36719 0.74219-0.50781 1.6875-0.39844 2.3945 0.11719 0.77344 0.54297 1.2812 1.0898 1.4297 1.0078 0.26562 2.7656 0.10938 4.1641 0.082031 0.94922-0.023437 1.6016-0.48047 2.0859-1.2461 0.37109-0.58594 0.63672-1.3789 0.90234-2.2461 0.49609-1.6211 0.16797-10.176 0.078125-12.426-0.089844-2.2539-3.125-9.6992-4.2969-12.359-1.1133-2.5234-2.3008-6.918-2.3008-10.262 0-3.6875-0.66797-5.8984-3.7695-8.707-1.7891-1.6172-1.9336-2.4297-1.9883-4.1055-0.027344-0.82422-0.039062-1.8359-0.16797-3.1719-0.11719-1.1758 0.53906-2.5234 1.4688-3.9922 1.5586-2.4688 3.9258-5.1953 5.5781-7.8438 1.7891-2.8633 1.8594-7.0195 0.35156-10.016-1.0508-2.0859-2.8438-3.6094-5.3008-3.8594-6.1172-0.61719-7.7383 1.4805-8.1328 2.7188-0.16406 0.50781-0.11719 1.1172 0.17188 1.6914 0.55078 1.0898 2.0508 2.1484 4.5078 1.5977 0.82422-0.1875 1.5273-0.26953 2.1094-0.22266 0.44922 0.039062 0.8125 0.14844 1.0781 0.38281 0.36719 0.33203 0.51172 0.87109 0.53125 1.6055 0.019531 0.69141-0.57812 1.8359-1.3906 3.1953-2.1172 3.543-5.8867 8.2461-7.1914 10.051-0.51563 0.71094-0.82813 1.7031-0.98438 2.8203-0.21094 1.5156-0.14844 3.2734-0.070312 4.7617 0.042969 0.85156 0.09375 1.6055 0.089844 2.168 0 0.14844-0.015625 0.31641-0.023438 0.42969zm-5.6094 28.715c0.28906 0.75781 0.89844 1.6758 1.5703 2.6016 1.457 2 3.2578 3.9766 3.582 4.4805 0.10938 0.17969 0.19922 0.47656 0.14844 0.89453-0.054687 0.46094-0.28906 1.2031-0.65234 2.0703-0.78516 1.8789-2.1641 4.4219-3.2578 5.9062-0.57812 0.78516-1.1328 1.2891-1.5 1.4297-0.41406 0.16016-0.59766 0.51172-0.67969 0.86719-0.070313 0.3125-0.070313 0.63672-0.039063 0.89844 0.20312 0.015625 0.54688 0.039062 0.83203 0.019531 1.1211-0.070312 2.5586-0.33594 3.25-0.44531 0.11328-0.12891 0.44141-0.51563 0.69922-0.89844 1.918-2.8359 5.4648-9.8203 5.6875-10.707 0.10156-0.40234-0.14453-0.84766-0.41016-1.3477-0.37891-0.71094-0.87891-1.4766-1.2383-2.2656-0.24219-0.53516-0.35156-1.4922-0.34375-2.5742 0.019531-2.25 0.46094-5.0977 0.46094-5.0977 0.054688-0.36719 0.36328-0.64062 0.73047-0.66016 0.36719-0.019531 0.69922 0.22266 0.79688 0.57812 0.085938 0.32812 0.38281 0.80469 0.80078 1.3984 0.71484 1.0234 1.7812 2.3242 2.9531 3.6992 3.0234 3.543 6.7305 7.5703 7.3203 8.75 0.66406 1.3281 0.61328 3.293 0.14453 4.7773-0.36328 1.1367-0.99609 1.9727-1.6328 2.2383-0.14844 0.0625-0.25391 0.21094-0.34766 0.37109-0.21484 0.36719-0.33594 0.85547-0.33984 1.2773-0.003907 0.16406 0.046874 0.39062 0.070312 0.48047 0.91797 0.20312 2.418 0.03125 3.625 0.007812 0.375-0.007812 0.61328-0.22266 0.80469-0.52344 0.30859-0.48047 0.50781-1.1445 0.72656-1.8633 0.47656-1.5547 0.097656-9.75 0.011719-11.906-0.085938-2.1523-3.0469-9.25-4.1641-11.793-1.1797-2.6797-2.4336-7.3438-2.4336-10.891 0-3.1953-0.57031-5.1172-3.2539-7.5469-1.9609-1.7734-2.3438-2.8164-2.4609-4.4219-0.070313-0.94531-0.03125-2.1172-0.20312-3.8633-0.14453-1.4531 0.55469-3.1641 1.7031-4.9805 1.5586-2.4648 3.9219-5.1953 5.5742-7.8359 1.5156-2.4258 1.5586-5.9453 0.27734-8.4844-0.80859-1.6055-2.1641-2.8164-4.0625-3.0078-2.5273-0.25781-4.1484-0.035156-5.1719 0.41016-0.8125 0.35156-1.1836 0.82422-1.3125 1.2266-0.070312 0.22656 0.03125 0.49609 0.22656 0.73438 0.4375 0.53516 1.332 0.84375 2.6211 0.55469 2.1641-0.48828 3.6797-0.27344 4.5703 0.52344 0.63672 0.57031 1.0234 1.457 1.0547 2.7266 0.023438 0.86328-0.59766 2.3398-1.6133 4.0391-2.1406 3.582-5.9453 8.3398-7.2656 10.164-0.45703 0.63281-0.65625 1.5664-0.75781 2.5859-0.16797 1.7266-0.015625 3.6953 0.054687 5.1367 0.039063 0.80078 0.050781 1.457-0.011719 1.8555-0.054687 0.34766-0.17187 0.58594-0.28906 0.72266-0.16797 0.19922-0.67969 0.47656-1.4688 0.67188-2.2422 0.55469-7.2266 1.0625-8.8203 1.2891-1.7422 0.24609-7.2656 2.9883-8.3047 3.5078v0.007813c-0.089844 0.24219-0.27344 0.75391-0.41016 1.2656-0.082032 0.30469-0.15625 0.60547-0.16016 0.83203-0.007813 0.59375 0.042968 2.4609-0.32813 3.918-0.17969 0.72266-0.46484 1.3516-0.87109 1.75-0.80859 0.80469-1.9141 1.3516-2.8906 2.0938-0.35547 0.27344-0.69531 0.57031-0.98438 0.92969-0.18359 0.23828-0.52734 0.28516-0.76562 0.10156-0.24219-0.18359-0.28516-0.52734-0.10156-0.76562 0.32812-0.44531 0.71875-0.82422 1.1328-1.168 0.89844-0.74219 1.9375-1.293 2.6758-2.0898 0.33594-0.35547 0.47266-0.98438 0.5625-1.6367 0.17578-1.2578 0.078125-2.6445 0.070313-3.1289-0.003907-0.32031 0.070312-0.76562 0.17969-1.2109l0.47656-1.5703c0.039062-0.09375 0.085937-0.17969 0.15234-0.25 0.14062-0.83594 0.66406-2.7578 0.92188-4.1445 0.023438-0.11719 0.039063-0.24219 0.054688-0.35938-0.023438 0.011719-0.050782 0.023438-0.070313 0.039062-1.4766 0.77734-3.8398 2.5586-4.3867 3.0586-0.35156 0.32422-0.95312 0.50781-1.7109 0.51172-1.2422 0.007813-3.0273-0.42188-4.3047-0.52344-1.6758-0.13281-3.7148 0.43359-3.7148 0.43359-0.25781 0.070313-0.53906 0.003907-0.73828-0.17969-0.85547-0.79297-2.1602-1.7734-3.2891-2.4609-0.46484-0.28125-0.89453-0.51953-1.2383-0.65234-0.019531 0.18359-0.039063 0.42578-0.03125 0.62891 0.039062 1.4023 0.36719 3.3594 0.29688 4.168-0.046875 0.55859 0.23047 1.1094 0.44531 1.7109 0.30078 0.84375 0.53906 1.7578 0.30859 2.7969-0.125 0.57422 0.17969 1.3594 0.53125 2.1133 0.55469 1.1836 1.3125 2.2695 1.457 2.4766 0.20312 0.28516 0.16406 0.53516 0.039063 0.73828l0.11719-0.097656s0 0.007812-0.003906 0.023437c-0.035156 0.1875-0.21484 1.2227-0.39844 3.4023-0.20313 2.4414 1.6523 9.5508 2.5352 13.684 0.92188 4.3359 0.15234 8.3242 0.007812 9.2695-0.097656 0.625 0.31641 4.7461 0.71094 7.4727 0.12891 0.87891 0.23828 1.6016 0.33984 1.9766 0.10156-0.007813 0.24219-0.023438 0.35156-0.046875 0.50391-0.11719 1.1094-0.38281 1.6445-0.67969 0.44531-0.25391 0.97656-0.73438 1.082-0.82812-0.007812-1.1133-1.3633-6.25-1.6289-7.1094-0.039062-0.13281-0.066406-0.33594-0.023437-0.60547 0.050781-0.29297 0.19141-0.75391 0.41016-1.3203 0.89844-2.3203 3.1211-6.6836 3.9453-8.2734-0.84375-0.60937-2.3594-1.7422-3.4688-2.7852-0.8125-0.76562-1.4023-1.5117-1.5078-2-0.074219-0.28906 0.10156-0.58984 0.39062-0.66406 0.29297-0.074219 0.58984 0.10156 0.66406 0.39453 0.042969 0.14844 0.19141 0.30469 0.36719 0.5 0.36328 0.39062 0.89453 0.82812 1.4727 1.2695 1.3516 1.0312 2.957 2.0508 3.4297 2.3438 1.9062 0.62891 2.957 2.6289 3.332 5.2656 0.78906 5.5547-1.2461 13.977-1.4219 14.93-0.22266 1.1992-0.60156 2.0234-0.96094 2.9531 0.21094 0.050781 0.50391 0.10156 0.75 0.12109 1.3945 0.10156 3.3203-0.050782 3.7539-0.1875 0.070312-0.023438 0.13281-0.039063 0.17578-0.082032 0.066406-0.070312 0.035156-0.18359 0.023438-0.34375-0.019532-0.27734-0.089844-0.62109-0.20703-1.0586-0.039062-0.14844-0.0625-0.40234-0.042968-0.75781 0.039062-0.57031 0.17578-1.5 0.39453-2.6758 1.2031-6.4766 4.7734-20.543 4.7734-20.543 0.082032-0.32422 0.36719-0.5625 0.70703-0.58594 0.80078-0.054687 5.5625-1.4531 5.5625-1.4531 0.082031-0.023438 0.16406-0.03125 0.25-0.027344 0.56641-0.11719 2.2695-0.49219 3.7891-1.0312 0.94531-0.33594 1.8242-0.70312 2.25-1.1523 0.19922-0.22656 0.54688-0.25 0.77344-0.050781 0.22656 0.19531 0.25 0.54297 0.050781 0.76953-0.47656 0.58594-1.4883 1.1562-2.6055 1.6328-1.2031 0.50781-2.5312 0.91406-3.3477 1.1406zm-27.77-16.672c0.26562-0.10938 0.61328-0.22656 0.99219-0.30469 0.24219-0.054688 0.5-0.046875 0.76562 0.007812 0.26563 0.054688 0.54688 0.15234 0.83594 0.41406 0.17969 0.16016 0.37109 0.33594 0.55859 0.58594 0.14844 0.26172 0.48047 0.35156 0.74219 0.20703 0.26172-0.14844 0.35156-0.48047 0.20703-0.74219-0.32031-0.76953-0.71875-1.2578-1.1328-1.5781-0.28125-0.21875-0.58594-0.34766-0.88281-0.41016-0.43359-0.097656-0.86719-0.054688-1.2578 0.074218-0.56641 0.19141-1.0391 0.53906-1.3828 0.80469-0.25781 0.15234-0.34766 0.48828-0.19531 0.74609 0.15234 0.25781 0.48828 0.34766 0.74609 0.19531zm8.0977 0.55469c0.16406-0.23438 0.39453-0.51953 0.67188-0.78906 0.17969-0.17578 0.39844-0.30469 0.65234-0.39844s0.54297-0.16406 0.92969-0.097656c0.23438 0.039062 0.49609 0.085937 0.78516 0.19531 0.26562 0.14062 0.59766 0.039062 0.74219-0.22656 0.14062-0.26563 0.039063-0.59766-0.22656-0.73828-0.67969-0.47656-1.2812-0.67578-1.8008-0.72656-0.35547-0.035156-0.67969 0.023437-0.96094 0.125-0.41797 0.15234-0.76562 0.41797-1.0234 0.73828-0.37891 0.46484-0.58594 1.0117-0.73438 1.4219-0.14062 0.26953-0.035156 0.59766 0.23438 0.73438 0.26953 0.13672 0.59766 0.035156 0.73437-0.23438z" fill-rule="evenodd"/>
<text x="0.0" y="117.5" font-size="5.0" font-weight="bold" font-family="Arbeit Regular, Helvetica, Arial-Unicode, Arial, Sans-serif" fill="#000000">Created by Harianto</text><text x="0.0" y="122.5" font-size="5.0" font-weight="bold" font-family="Arbeit Regular, Helvetica, Arial-Unicode, Arial, Sans-serif" fill="#000000">from Noun Project</text></svg>